<?xml version="1.0" encoding="utf-8" standalone="no"?>
<!DOCTYPE svg PUBLIC "-//W3C//DTD SVG 1.1//EN"
  "http://www.w3.org/Graphics/SVG/1.1/DTD/svg11.dtd">
<svg xmlns:xlink="http://www.w3.org/1999/xlink" width="782.238359pt" height="314.590797pt" viewBox="0 0 782.238359 314.590797" xmlns="http://www.w3.org/2000/svg" version="1.1">
 <metadata>
  <rdf:RDF xmlns:dc="http://purl.org/dc/elements/1.1/" xmlns:cc="http://creativecommons.org/ns#" xmlns:rdf="http://www.w3.org/1999/02/22-rdf-syntax-ns#">
   <cc:Work>
    <dc:type rdf:resource="http://purl.org/dc/dcmitype/StillImage"/>
    <dc:date>2026-09-25T02:52:38.312133</dc:date>
    <dc:format>image/svg+xml</dc:format>
    <dc:creator>
     <cc:Agent>
      <dc:title>Matplotlib v3.11.2, https://matplotlib.org/</dc:title>
     </cc:Agent>
    </dc:creator>
   </cc:Work>
  </rdf:RDF>
 </metadata>
 <defs>
  <style type="text/css">*{stroke-linejoin: round; stroke-linecap: butt}</style>
 </defs>
 <g id="figure_1">
  <g id="patch_1">
   <path d="M 0 314.590797 
L 782.238359 314.590797 
L 782.238359 0 
L 0 0 
z
" style="fill: #ffffff"/>
  </g>
  <g id="axes_1">
   <g id="patch_2">
    <path d="M 43.198359 274.389938 
L 775.038359 274.389938 
L 775.038359 23.229938 
L 43.198359 23.229938 
z
" style="fill: #ffffff"/>
   </g>
   <g id="matplotlib.axis_1">
    <g id="xtick_1">
     <g id="line2d_1">
      <defs>
       <path id="m38afa62e50" d="M 0 0 
L 0 3.5 
" style="stroke: #000000; stroke-width: 0.8"/>
      </defs>
      <g>
       <use xlink:href="#m38afa62e50" x="76.463814" y="274.389938" style="stroke: #000000; stroke-width: 0.8"/>
      </g>
     </g>
     <g id="text_1">
      <text style="font-size: 11px; font-family: 'DejaVu Sans'; text-anchor: middle" x="76.463814" y="289.747359" transform="rotate(-0 76.463814 289.747359)">0</text>
     </g>
    </g>
    <g id="xtick_2">
     <g id="line2d_2">
      <g>
       <use xlink:href="#m38afa62e50" x="210.418664" y="274.389938" style="stroke: #000000; stroke-width: 0.8"/>
      </g>
     </g>
     <g id="text_2">
      <text style="font-size: 11px; font-family: 'DejaVu Sans'; text-anchor: middle" x="210.418664" y="289.747359" transform="rotate(-0 210.418664 289.747359)">3</text>
     </g>
    </g>
    <g id="xtick_3">
     <g id="line2d_3">
      <g>
       <use xlink:href="#m38afa62e50" x="344.373515" y="274.389938" style="stroke: #000000; stroke-width: 0.8"/>
      </g>
     </g>
     <g id="text_3">
      <text style="font-size: 11px; font-family: 'DejaVu Sans'; text-anchor: middle" x="344.373515" y="289.747359" transform="rotate(-0 344.373515 289.747359)">6</text>
     </g>
    </g>
    <g id="xtick_4">
     <g id="line2d_4">
      <g>
       <use xlink:href="#m38afa62e50" x="478.328365" y="274.389938" style="stroke: #000000; stroke-width: 0.8"/>
      </g>
     </g>
     <g id="text_4">
      <text style="font-size: 11px; font-family: 'DejaVu Sans'; text-anchor: middle" x="478.328365" y="289.747359" transform="rotate(-0 478.328365 289.747359)">9</text>
     </g>
    </g>
    <g id="xtick_5">
     <g id="line2d_5">
      <g>
       <use xlink:href="#m38afa62e50" x="612.283216" y="274.389938" style="stroke: #000000; stroke-width: 0.8"/>
      </g>
     </g>
     <g id="text_5">
      <text style="font-size: 11px; font-family: 'DejaVu Sans'; text-anchor: middle" x="612.283216" y="289.747359" transform="rotate(-0 612.283216 289.747359)">12</text>
     </g>
    </g>
    <g id="xtick_6">
     <g id="line2d_6">
      <g>
       <use xlink:href="#m38afa62e50" x="746.238067" y="274.389938" style="stroke: #000000; stroke-width: 0.8"/>
      </g>
     </g>
     <g id="text_6">
      <text style="font-size: 11px; font-family: 'DejaVu Sans'; text-anchor: middle" x="746.238067" y="289.747359" transform="rotate(-0 746.238067 289.747359)">15</text>
     </g>
    </g>
    <g id="text_7">
     <text style="font-size: 11px; font-family: 'DejaVu Sans'; text-anchor: middle" x="409.118359" y="304.748219" transform="rotate(-0 409.118359 304.748219)">Scheduled arrival after load start (s)</text>
    </g>
   </g>
   <g id="matplotlib.axis_2">
    <g id="ytick_1">
     <g id="line2d_7">
      <path d="M 43.198359 274.389938 
L 775.038359 274.389938 
" clip-path="url(#p4b1dea70e7)" style="fill: none; stroke: #b0b0b0; stroke-opacity: 0.18; stroke-width: 0.8; stroke-linecap: square"/>
     </g>
     <g id="line2d_8">
      <defs>
       <path id="mf2119df101" d="M 0 0 
L -3.5 0 
" style="stroke: #000000; stroke-width: 0.8"/>
      </defs>
      <g>
       <use xlink:href="#mf2119df101" x="43.198359" y="274.389938" style="stroke: #000000; stroke-width: 0.8"/>
      </g>
     </g>
     <g id="text_8">
      <text style="font-size: 11px; font-family: 'DejaVu Sans'; text-anchor: end" x="36.198359" y="278.568648" transform="rotate(-0 36.198359 278.568648)">0</text>
     </g>
    </g>
    <g id="ytick_2">
     <g id="line2d_9">
      <path d="M 43.198359 238.509938 
L 775.038359 238.509938 
" clip-path="url(#p4b1dea70e7)" style="fill: none; stroke: #b0b0b0; stroke-opacity: 0.18; stroke-width: 0.8; stroke-linecap: square"/>
     </g>
     <g id="line2d_10">
      <g>
       <use xlink:href="#mf2119df101" x="43.198359" y="238.509938" style="stroke: #000000; stroke-width: 0.8"/>
      </g>
     </g>
     <g id="text_9">
      <text style="font-size: 11px; font-family: 'DejaVu Sans'; text-anchor: end" x="36.198359" y="242.688648" transform="rotate(-0 36.198359 242.688648)">2</text>
     </g>
    </g>
    <g id="ytick_3">
     <g id="line2d_11">
      <path d="M 43.198359 202.629938 
L 775.038359 202.629938 
" clip-path="url(#p4b1dea70e7)" style="fill: none; stroke: #b0b0b0; stroke-opacity: 0.18; stroke-width: 0.8; stroke-linecap: square"/>
     </g>
     <g id="line2d_12">
      <g>
       <use xlink:href="#mf2119df101" x="43.198359" y="202.629938" style="stroke: #000000; stroke-width: 0.8"/>
      </g>
     </g>
     <g id="text_10">
      <text style="font-size: 11px; font-family: 'DejaVu Sans'; text-anchor: end" x="36.198359" y="206.808648" transform="rotate(-0 36.198359 206.808648)">4</text>
     </g>
    </g>
    <g id="ytick_4">
     <g id="line2d_13">
      <path d="M 43.198359 166.749938 
L 775.038359 166.749938 
" clip-path="url(#p4b1dea70e7)" style="fill: none; stroke: #b0b0b0; stroke-opacity: 0.18; stroke-width: 0.8; stroke-linecap: square"/>
     </g>
     <g id="line2d_14">
      <g>
       <use xlink:href="#mf2119df101" x="43.198359" y="166.749938" style="stroke: #000000; stroke-width: 0.8"/>
      </g>
     </g>
     <g id="text_11">
      <text style="font-size: 11px; font-family: 'DejaVu Sans'; text-anchor: end" x="36.198359" y="170.928648" transform="rotate(-0 36.198359 170.928648)">6</text>
     </g>
    </g>
    <g id="ytick_5">
     <g id="line2d_15">
      <path d="M 43.198359 130.869938 
L 775.038359 130.869938 
" clip-path="url(#p4b1dea70e7)" style="fill: none; stroke: #b0b0b0; stroke-opacity: 0.18; stroke-width: 0.8; stroke-linecap: square"/>
     </g>
     <g id="line2d_16">
      <g>
       <use xlink:href="#mf2119df101" x="43.198359" y="130.869938" style="stroke: #000000; stroke-width: 0.8"/>
      </g>
     </g>
     <g id="text_12">
      <text style="font-size: 11px; font-family: 'DejaVu Sans'; text-anchor: end" x="36.198359" y="135.048648" transform="rotate(-0 36.198359 135.048648)">8</text>
     </g>
    </g>
    <g id="ytick_6">
     <g id="line2d_17">
      <path d="M 43.198359 94.989938 
L 775.038359 94.989938 
" clip-path="url(#p4b1dea70e7)" style="fill: none; stroke: #b0b0b0; stroke-opacity: 0.18; stroke-width: 0.8; stroke-linecap: square"/>
     </g>
     <g id="line2d_18">
      <g>
       <use xlink:href="#mf2119df101" x="43.198359" y="94.989938" style="stroke: #000000; stroke-width: 0.8"/>
      </g>
     </g>
     <g id="text_13">
      <text style="font-size: 11px; font-family: 'DejaVu Sans'; text-anchor: end" x="36.198359" y="99.168648" transform="rotate(-0 36.198359 99.168648)">10</text>
     </g>
    </g>
    <g id="ytick_7">
     <g id="line2d_19">
      <path d="M 43.198359 59.109938 
L 775.038359 59.109938 
" clip-path="url(#p4b1dea70e7)" style="fill: none; stroke: #b0b0b0; stroke-opacity: 0.18; stroke-width: 0.8; stroke-linecap: square"/>
     </g>
     <g id="line2d_20">
      <g>
       <use xlink:href="#mf2119df101" x="43.198359" y="59.109938" style="stroke: #000000; stroke-width: 0.8"/>
      </g>
     </g>
     <g id="text_14">
      <text style="font-size: 11px; font-family: 'DejaVu Sans'; text-anchor: end" x="36.198359" y="63.288648" transform="rotate(-0 36.198359 63.288648)">12</text>
     </g>
    </g>
    <g id="ytick_8">
     <g id="line2d_21">
      <path d="M 43.198359 23.229938 
L 775.038359 23.229938 
" clip-path="url(#p4b1dea70e7)" style="fill: none; stroke: #b0b0b0; stroke-opacity: 0.18; stroke-width: 0.8; stroke-linecap: square"/>
     </g>
     <g id="line2d_22">
      <g>
       <use xlink:href="#mf2119df101" x="43.198359" y="23.229938" style="stroke: #000000; stroke-width: 0.8"/>
      </g>
     </g>
     <g id="text_15">
      <text style="font-size: 11px; font-family: 'DejaVu Sans'; text-anchor: end" x="36.198359" y="27.408648" transform="rotate(-0 36.198359 27.408648)">14</text>
     </g>
    </g>
    <g id="text_16">
     <text style="font-size: 11px; font-family: 'DejaVu Sans'; text-anchor: middle" x="15.558281" y="148.809938" transform="rotate(-90 15.558281 148.809938)">Attempts / one-second bin</text>
    </g>
   </g>
   <g id="patch_3">
    <path d="M 76.463814 274.389938 
L 116.650269 274.389938 
L 116.650269 94.989938 
L 76.463814 94.989938 
z
" clip-path="url(#p4b1dea70e7)" style="fill: #0072b2"/>
   </g>
   <g id="patch_4">
    <path d="M 121.115431 274.389938 
L 161.301886 274.389938 
L 161.301886 94.989938 
L 121.115431 94.989938 
z
" clip-path="url(#p4b1dea70e7)" style="fill: #0072b2"/>
   </g>
   <g id="patch_5">
    <path d="M 165.767048 274.389938 
L 205.953503 274.389938 
L 205.953503 220.569938 
L 165.767048 220.569938 
z
" clip-path="url(#p4b1dea70e7)" style="fill: #0072b2"/>
   </g>
   <g id="patch_6">
    <path d="M 210.418664 274.389938 
L 250.60512 274.389938 
L 250.60512 274.389938 
L 210.418664 274.389938 
z
" clip-path="url(#p4b1dea70e7)" style="fill: #0072b2"/>
   </g>
   <g id="patch_7">
    <path d="M 255.070281 274.389938 
L 295.256736 274.389938 
L 295.256736 274.389938 
L 255.070281 274.389938 
z
" clip-path="url(#p4b1dea70e7)" style="fill: #0072b2"/>
   </g>
   <g id="patch_8">
    <path d="M 299.721898 274.389938 
L 339.908353 274.389938 
L 339.908353 274.389938 
L 299.721898 274.389938 
z
" clip-path="url(#p4b1dea70e7)" style="fill: #0072b2"/>
   </g>
   <g id="patch_9">
    <path d="M 344.373515 274.389938 
L 384.55997 274.389938 
L 384.55997 274.389938 
L 344.373515 274.389938 
z
" clip-path="url(#p4b1dea70e7)" style="fill: #0072b2"/>
   </g>
   <g id="patch_10">
    <path d="M 389.025132 274.389938 
L 429.211587 274.389938 
L 429.211587 274.389938 
L 389.025132 274.389938 
z
" clip-path="url(#p4b1dea70e7)" style="fill: #0072b2"/>
   </g>
   <g id="patch_11">
    <path d="M 433.676749 274.389938 
L 473.863204 274.389938 
L 473.863204 274.389938 
L 433.676749 274.389938 
z
" clip-path="url(#p4b1dea70e7)" style="fill: #0072b2"/>
   </g>
   <g id="patch_12">
    <path d="M 478.328365 274.389938 
L 518.514821 274.389938 
L 518.514821 274.389938 
L 478.328365 274.389938 
z
" clip-path="url(#p4b1dea70e7)" style="fill: #0072b2"/>
   </g>
   <g id="patch_13">
    <path d="M 522.979982 274.389938 
L 563.166437 274.389938 
L 563.166437 274.389938 
L 522.979982 274.389938 
z
" clip-path="url(#p4b1dea70e7)" style="fill: #0072b2"/>
   </g>
   <g id="patch_14">
    <path d="M 567.631599 274.389938 
L 607.818054 274.389938 
L 607.818054 274.389938 
L 567.631599 274.389938 
z
" clip-path="url(#p4b1dea70e7)" style="fill: #0072b2"/>
   </g>
   <g id="patch_15">
    <path d="M 612.283216 274.389938 
L 652.469671 274.389938 
L 652.469671 274.389938 
L 612.283216 274.389938 
z
" clip-path="url(#p4b1dea70e7)" style="fill: #0072b2"/>
   </g>
   <g id="patch_16">
    <path d="M 656.934833 274.389938 
L 697.121288 274.389938 
L 697.121288 274.389938 
L 656.934833 274.389938 
z
" clip-path="url(#p4b1dea70e7)" style="fill: #0072b2"/>
   </g>
   <g id="patch_17">
    <path d="M 701.58645 274.389938 
L 741.772905 274.389938 
L 741.772905 274.389938 
L 701.58645 274.389938 
z
" clip-path="url(#p4b1dea70e7)" style="fill: #0072b2"/>
   </g>
   <g id="patch_18">
    <path d="M 76.463814 94.989938 
L 116.650269 94.989938 
L 116.650269 94.989938 
L 76.463814 94.989938 
z
" clip-path="url(#p4b1dea70e7)" style="fill: #d55e00"/>
   </g>
   <g id="patch_19">
    <path d="M 121.115431 94.989938 
L 161.301886 94.989938 
L 161.301886 94.989938 
L 121.115431 94.989938 
z
" clip-path="url(#p4b1dea70e7)" style="fill: #d55e00"/>
   </g>
   <g id="patch_20">
    <path d="M 165.767048 220.569938 
L 205.953503 220.569938 
L 205.953503 94.989937 
L 165.767048 94.989937 
z
" clip-path="url(#p4b1dea70e7)" style="fill: #d55e00"/>
   </g>
   <g id="patch_21">
    <path d="M 210.418664 274.389938 
L 250.60512 274.389938 
L 250.60512 94.989938 
L 210.418664 94.989938 
z
" clip-path="url(#p4b1dea70e7)" style="fill: #d55e00"/>
   </g>
   <g id="patch_22">
    <path d="M 255.070281 274.389938 
L 295.256736 274.389938 
L 295.256736 202.629938 
L 255.070281 202.629938 
z
" clip-path="url(#p4b1dea70e7)" style="fill: #d55e00"/>
   </g>
   <g id="patch_23">
    <path d="M 299.721898 274.389938 
L 339.908353 274.389938 
L 339.908353 274.389938 
L 299.721898 274.389938 
z
" clip-path="url(#p4b1dea70e7)" style="fill: #d55e00"/>
   </g>
   <g id="patch_24">
    <path d="M 344.373515 274.389938 
L 384.55997 274.389938 
L 384.55997 274.389938 
L 344.373515 274.389938 
z
" clip-path="url(#p4b1dea70e7)" style="fill: #d55e00"/>
   </g>
   <g id="patch_25">
    <path d="M 389.025132 274.389938 
L 429.211587 274.389938 
L 429.211587 274.389938 
L 389.025132 274.389938 
z
" clip-path="url(#p4b1dea70e7)" style="fill: #d55e00"/>
   </g>
   <g id="patch_26">
    <path d="M 433.676749 274.389938 
L 473.863204 274.389938 
L 473.863204 274.389938 
L 433.676749 274.389938 
z
" clip-path="url(#p4b1dea70e7)" style="fill: #d55e00"/>
   </g>
   <g id="patch_27">
    <path d="M 478.328365 274.389938 
L 518.514821 274.389938 
L 518.514821 274.389938 
L 478.328365 274.389938 
z
" clip-path="url(#p4b1dea70e7)" style="fill: #d55e00"/>
   </g>
   <g id="patch_28">
    <path d="M 522.979982 274.389938 
L 563.166437 274.389938 
L 563.166437 274.389938 
L 522.979982 274.389938 
z
" clip-path="url(#p4b1dea70e7)" style="fill: #d55e00"/>
   </g>
   <g id="patch_29">
    <path d="M 567.631599 274.389938 
L 607.818054 274.389938 
L 607.818054 274.389938 
L 567.631599 274.389938 
z
" clip-path="url(#p4b1dea70e7)" style="fill: #d55e00"/>
   </g>
   <g id="patch_30">
    <path d="M 612.283216 274.389938 
L 652.469671 274.389938 
L 652.469671 274.389938 
L 612.283216 274.389938 
z
" clip-path="url(#p4b1dea70e7)" style="fill: #d55e00"/>
   </g>
   <g id="patch_31">
    <path d="M 656.934833 274.389938 
L 697.121288 274.389938 
L 697.121288 274.389938 
L 656.934833 274.389938 
z
" clip-path="url(#p4b1dea70e7)" style="fill: #d55e00"/>
   </g>
   <g id="patch_32">
    <path d="M 701.58645 274.389938 
L 741.772905 274.389938 
L 741.772905 274.389938 
L 701.58645 274.389938 
z
" clip-path="url(#p4b1dea70e7)" style="fill: #d55e00"/>
   </g>
   <g id="patch_33">
    <path d="M 76.463814 94.989938 
L 116.650269 94.989938 
L 116.650269 94.989938 
L 76.463814 94.989938 
z
" clip-path="url(#p4b1dea70e7)" style="fill: #009e73"/>
   </g>
   <g id="patch_34">
    <path d="M 121.115431 94.989938 
L 161.301886 94.989938 
L 161.301886 94.989938 
L 121.115431 94.989938 
z
" clip-path="url(#p4b1dea70e7)" style="fill: #009e73"/>
   </g>
   <g id="patch_35">
    <path d="M 165.767048 94.989938 
L 205.953503 94.989938 
L 205.953503 94.989938 
L 165.767048 94.989938 
z
" clip-path="url(#p4b1dea70e7)" style="fill: #009e73"/>
   </g>
   <g id="patch_36">
    <path d="M 210.418664 94.989938 
L 250.60512 94.989938 
L 250.60512 94.989938 
L 210.418664 94.989938 
z
" clip-path="url(#p4b1dea70e7)" style="fill: #009e73"/>
   </g>
   <g id="patch_37">
    <path d="M 255.070281 202.629938 
L 295.256736 202.629938 
L 295.256736 94.989937 
L 255.070281 94.989937 
z
" clip-path="url(#p4b1dea70e7)" style="fill: #009e73"/>
   </g>
   <g id="patch_38">
    <path d="M 299.721898 274.389938 
L 339.908353 274.389938 
L 339.908353 94.989938 
L 299.721898 94.989938 
z
" clip-path="url(#p4b1dea70e7)" style="fill: #009e73"/>
   </g>
   <g id="patch_39">
    <path d="M 344.373515 274.389938 
L 384.55997 274.389938 
L 384.55997 94.989938 
L 344.373515 94.989938 
z
" clip-path="url(#p4b1dea70e7)" style="fill: #009e73"/>
   </g>
   <g id="patch_40">
    <path d="M 389.025132 274.389938 
L 429.211587 274.389938 
L 429.211587 94.989938 
L 389.025132 94.989938 
z
" clip-path="url(#p4b1dea70e7)" style="fill: #009e73"/>
   </g>
   <g id="patch_41">
    <path d="M 433.676749 274.389938 
L 473.863204 274.389938 
L 473.863204 94.989938 
L 433.676749 94.989938 
z
" clip-path="url(#p4b1dea70e7)" style="fill: #009e73"/>
   </g>
   <g id="patch_42">
    <path d="M 478.328365 274.389938 
L 518.514821 274.389938 
L 518.514821 94.989938 
L 478.328365 94.989938 
z
" clip-path="url(#p4b1dea70e7)" style="fill: #009e73"/>
   </g>
   <g id="patch_43">
    <path d="M 522.979982 274.389938 
L 563.166437 274.389938 
L 563.166437 94.989938 
L 522.979982 94.989938 
z
" clip-path="url(#p4b1dea70e7)" style="fill: #009e73"/>
   </g>
   <g id="patch_44">
    <path d="M 567.631599 274.389938 
L 607.818054 274.389938 
L 607.818054 94.989938 
L 567.631599 94.989938 
z
" clip-path="url(#p4b1dea70e7)" style="fill: #009e73"/>
   </g>
   <g id="patch_45">
    <path d="M 612.283216 274.389938 
L 652.469671 274.389938 
L 652.469671 94.989938 
L 612.283216 94.989938 
z
" clip-path="url(#p4b1dea70e7)" style="fill: #009e73"/>
   </g>
   <g id="patch_46">
    <path d="M 656.934833 274.389938 
L 697.121288 274.389938 
L 697.121288 94.989938 
L 656.934833 94.989938 
z
" clip-path="url(#p4b1dea70e7)" style="fill: #009e73"/>
   </g>
   <g id="patch_47">
    <path d="M 701.58645 274.389938 
L 741.772905 274.389938 
L 741.772905 94.989938 
L 701.58645 94.989938 
z
" clip-path="url(#p4b1dea70e7)" style="fill: #009e73"/>
   </g>
   <g id="patch_48">
    <path d="M 43.198359 274.389938 
L 43.198359 23.229938 
" style="fill: none; stroke: #000000; stroke-width: 0.8; stroke-linejoin: miter; stroke-linecap: square"/>
   </g>
   <g id="patch_49">
    <path d="M 43.198359 274.389938 
L 775.038359 274.389938 
" style="fill: none; stroke: #000000; stroke-width: 0.8; stroke-linejoin: miter; stroke-linecap: square"/>
   </g>
   <g id="text_17">
    <text style="font-size: 13.2px; font-family: 'DejaVu Sans'; text-anchor: middle" x="409.118359" y="17.229938" transform="rotate(-0 409.118359 17.229938)">Injected failure and automatic recovery to approved KPQC</text>
   </g>
   <g id="legend_1">
    <g id="patch_50">
     <path d="M 167.355547 41.488219 
L 189.355547 41.488219 
L 189.355547 33.788219 
L 167.355547 33.788219 
z
" style="fill: #0072b2"/>
    </g>
    <g id="text_18">
     <text style="font-size: 11px; font-family: 'DejaVu Sans'; text-anchor: start" x="198.155547" y="41.488219" transform="rotate(-0 198.155547 41.488219)">New deployment</text>
    </g>
    <g id="patch_51">
     <path d="M 313.444141 41.488219 
L 335.444141 41.488219 
L 335.444141 33.788219 
L 313.444141 33.788219 
z
" style="fill: #d55e00"/>
    </g>
    <g id="text_19">
     <text style="font-size: 11px; font-family: 'DejaVu Sans'; text-anchor: start" x="344.244141" y="41.488219" transform="rotate(-0 344.244141 41.488219)">Failed attempts</text>
    </g>
    <g id="patch_52">
     <path d="M 451.537109 41.488219 
L 473.537109 41.488219 
L 473.537109 33.788219 
L 451.537109 33.788219 
z
" style="fill: #009e73"/>
    </g>
    <g id="text_20">
     <text style="font-size: 11px; font-family: 'DejaVu Sans'; text-anchor: start" x="482.337109" y="41.488219" transform="rotate(-0 482.337109 41.488219)">Restored previous deployment</text>
    </g>
   </g>
  </g>
 </g>
 <defs>
  <clipPath id="p4b1dea70e7">
   <rect x="43.198359" y="23.229938" width="731.84" height="251.16"/>
  </clipPath>
 </defs>
</svg>
